# xmcd
#
# Track frame offsets: 
#        150
#        32159
#        54379
#        78486
#        99428
#        115531
#        130427
#        146907
#        160753
#        176552
#        190469
#        209173
#        230471
#        246309
#
# Disc length: 3404 seconds
#
# Revision: 2
# Processed by: cddbd v1.5.2PL0 Copyright (c) Steve Scherf et al.
# Submitted via: ExactAudioCopy v0.99pb5
#
DISCID=ca0d4a0e
DTITLE=Paul Motian Band - Garden Of Eden
DYEAR=2006
DGENRE=Jazz
TTITLE0=Pithecanthropus Erectus
TTITLE1=Goodbye Pork Pie Hat
TTITLE2=Etude
TTITLE3=Mesmer
TTITLE4=Mumbo Jumbo
TTITLE5=Desert Dream
TTITLE6=Balata
TTITLE7=Bill
TTITLE8=Endless
TTITLE9=Prelude 2 Narcissus
TTITLE10=Garden Of Eden
TTITLE11=Manhattan Melodrama
TTITLE12=Evidence
TTITLE13=Cheryl
EXTD=YEAR: 2006
EXTT0=
EXTT1=
EXTT2=
EXTT3=
EXTT4=
EXTT5=
EXTT6=
EXTT7=
EXTT8=
EXTT9=
EXTT10=
EXTT11=
EXTT12=
EXTT13=
PLAYORDER=
